<svg width="1059" height="1059" viewBox="0 0 1059 1059" fill="none" xmlns="http://www.w3.org/2000/svg">
<path fill-rule="evenodd" clip-rule="evenodd" d="M472.869 23.4314C504.111 -7.81051 554.764 -7.81046 586.006 23.4315L624.437 61.8627L1035.44 472.869C1066.69 504.111 1066.69 554.764 1035.44 586.006L601.345 1020.1L586.006 1035.44C554.764 1066.69 504.111 1066.69 472.869 1035.44L457.53 1020.1L23.4314 586.006C-7.81052 554.764 -7.81045 504.111 23.4315 472.869L434.438 61.8627L472.869 23.4314ZM402.743 452.175C387.122 467.796 387.122 493.122 402.743 508.743L557.578 663.579C573.199 679.2 598.526 679.2 614.147 663.579L672.578 605.147C688.199 589.526 688.199 564.2 672.578 548.579L517.743 393.743C502.122 378.122 476.795 378.122 461.174 393.743L402.743 452.175Z" fill="#E7742D"/>
</svg>
